<svg width="1123" height="132" viewBox="0 0 1123 132" fill="none" xmlns="http://www.w3.org/2000/svg">
<g filter="url(#filter0_d_7_2)">
<path d="M291.395 120.957L288.072 114.593H271.672L268.35 120.957H265.941L278.58 96.8042H281.164L293.803 120.957H291.395ZM279.881 98.9311L272.744 112.572H287L279.881 98.9311ZM318.785 113.363C318.785 114.57 318.527 115.671 318.011 116.667C317.507 117.652 316.746 118.501 315.726 119.216C314.718 119.919 313.453 120.464 311.929 120.851C310.406 121.238 308.63 121.431 306.603 121.431C304.576 121.431 302.8 121.238 301.277 120.851C299.754 120.464 298.482 119.919 297.463 119.216C296.443 118.501 295.675 117.652 295.16 116.667C294.656 115.671 294.404 114.57 294.404 113.363V96.8042H296.601V113.539C296.601 114.347 296.812 115.115 297.234 115.841C297.668 116.556 298.306 117.183 299.15 117.722C299.994 118.261 301.037 118.689 302.279 119.005C303.521 119.322 304.963 119.48 306.603 119.48C308.232 119.48 309.668 119.322 310.91 119.005C312.152 118.689 313.195 118.261 314.039 117.722C314.882 117.183 315.515 116.556 315.937 115.841C316.371 115.115 316.588 114.347 316.588 113.539V96.8042H318.785V113.363ZM349.48 108.863C349.48 110.41 349.316 111.787 348.988 112.994C348.671 114.189 348.22 115.232 347.634 116.123C347.048 117.013 346.333 117.769 345.489 118.39C344.657 119.011 343.726 119.509 342.695 119.884C341.675 120.259 340.562 120.535 339.355 120.71C338.159 120.874 336.9 120.957 335.575 120.957H323.113V96.8042H335.54C337.521 96.8042 339.361 96.9975 341.06 97.3843C342.759 97.771 344.23 98.4331 345.472 99.3706C346.726 100.296 347.704 101.533 348.407 103.08C349.122 104.626 349.48 106.554 349.48 108.863ZM347.212 108.863C347.212 107.55 347.083 106.39 346.825 105.382C346.568 104.374 346.198 103.501 345.718 102.763C345.238 102.013 344.652 101.386 343.96 100.882C343.269 100.378 342.489 99.9741 341.622 99.6694C340.755 99.353 339.812 99.1304 338.792 99.0014C337.773 98.8725 336.689 98.8081 335.54 98.8081H325.31V118.935H335.54C337.263 118.935 338.839 118.783 340.269 118.478C341.698 118.162 342.923 117.623 343.943 116.861C344.974 116.087 345.777 115.056 346.351 113.767C346.925 112.466 347.212 110.832 347.212 108.863ZM352.278 120.957V96.8042H354.475V120.957H352.278ZM388 108.898C388 111.066 387.608 112.941 386.823 114.523C386.038 116.093 384.959 117.394 383.588 118.425C382.217 119.445 380.6 120.201 378.737 120.693C376.873 121.185 374.864 121.431 372.707 121.431C370.539 121.431 368.518 121.185 366.643 120.693C364.768 120.201 363.139 119.445 361.756 118.425C360.373 117.394 359.289 116.093 358.504 114.523C357.719 112.941 357.327 111.066 357.327 108.898C357.327 107.457 357.508 106.15 357.871 104.978C358.235 103.794 358.745 102.74 359.401 101.814C360.057 100.876 360.848 100.068 361.774 99.3882C362.711 98.7085 363.748 98.146 364.885 97.7007C366.034 97.2436 367.264 96.9097 368.577 96.6987C369.889 96.4761 371.266 96.3647 372.707 96.3647C374.864 96.3647 376.873 96.6108 378.737 97.103C380.6 97.5952 382.217 98.3569 383.588 99.3882C384.959 100.408 386.038 101.708 386.823 103.291C387.608 104.861 388 106.73 388 108.898ZM385.733 108.898C385.733 107.187 385.452 105.675 384.889 104.363C384.338 103.05 383.518 101.949 382.428 101.058C381.338 100.156 379.979 99.4761 378.35 99.019C376.733 98.5503 374.852 98.3159 372.707 98.3159C370.563 98.3159 368.67 98.5503 367.03 99.019C365.401 99.4878 364.036 100.173 362.934 101.076C361.832 101.966 361 103.074 360.438 104.398C359.875 105.71 359.594 107.21 359.594 108.898C359.594 110.609 359.875 112.121 360.438 113.433C361 114.746 361.832 115.853 362.934 116.755C364.036 117.646 365.401 118.326 367.03 118.794C368.67 119.251 370.563 119.48 372.707 119.48C374.852 119.48 376.733 119.251 378.35 118.794C379.979 118.326 381.338 117.646 382.428 116.755C383.518 115.853 384.338 114.746 384.889 113.433C385.452 112.121 385.733 110.609 385.733 108.898ZM400.787 120.957V96.8042H402.984V120.957H400.787ZM430.708 120.957L409.72 99.687V120.957H407.523V96.8042H409.948L430.937 118.144V96.8042H433.099V120.957H430.708ZM447.429 98.8081V120.957H445.249V98.8081H434.262V96.8042H458.415V98.8081H447.429ZM459.561 120.957V96.8042H479.688V98.8608H461.952V107.175H478.791V109.214H461.952V118.9H479.952V120.957H459.561ZM483.137 120.957V96.8042H485.334V118.9H502.982V120.957H483.137ZM504.779 120.957V96.8042H506.976V118.9H524.625V120.957H504.779ZM526.421 120.957V96.8042H528.618V120.957H526.421ZM547.378 96.3647C548.491 96.3647 549.528 96.4233 550.489 96.5405C551.45 96.646 552.37 96.8042 553.249 97.0151C554.128 97.2143 554.983 97.4604 555.815 97.7534C556.647 98.0347 557.485 98.3511 558.329 98.7026V101.374C557.661 100.953 556.946 100.554 556.184 100.179C555.434 99.8042 554.62 99.4761 553.741 99.1948C552.874 98.9136 551.936 98.6909 550.929 98.5268C549.932 98.3628 548.86 98.2807 547.712 98.2807C545.368 98.2807 543.323 98.5268 541.577 99.019C539.831 99.5112 538.378 100.214 537.218 101.128C536.057 102.042 535.184 103.156 534.598 104.468C534.024 105.781 533.737 107.257 533.737 108.898C533.737 110.433 534.018 111.851 534.581 113.152C535.155 114.441 536.016 115.554 537.165 116.492C538.325 117.429 539.772 118.162 541.507 118.689C543.241 119.216 545.274 119.48 547.606 119.48C548.52 119.48 549.423 119.445 550.313 119.374C551.216 119.304 552.065 119.216 552.862 119.111C553.659 118.994 554.386 118.871 555.042 118.742C555.698 118.601 556.255 118.46 556.712 118.32V110.99H546.886V108.933H558.909V119.55C558.042 119.855 557.163 120.124 556.272 120.359C555.393 120.593 554.479 120.792 553.53 120.957C552.593 121.109 551.614 121.226 550.595 121.308C549.587 121.39 548.526 121.431 547.413 121.431C545.139 121.431 543.03 121.179 541.085 120.675C539.139 120.16 537.452 119.386 536.022 118.355C534.604 117.312 533.491 116.005 532.682 114.435C531.874 112.865 531.47 111.019 531.47 108.898C531.47 107.48 531.657 106.191 532.032 105.031C532.407 103.859 532.934 102.81 533.614 101.884C534.305 100.947 535.132 100.132 536.093 99.4409C537.065 98.7495 538.138 98.1811 539.309 97.7358C540.493 97.2788 541.764 96.9389 543.124 96.7163C544.483 96.4819 545.901 96.3647 547.378 96.3647ZM562.323 120.957V96.8042H582.45V98.8608H564.713V107.175H581.553V109.214H564.713V118.9H582.713V120.957H562.323ZM609.084 120.957L588.096 99.687V120.957H585.898V96.8042H588.324L609.312 118.144V96.8042H611.475V120.957H609.084ZM640.781 119.041C639.937 119.392 639.099 119.714 638.267 120.007C637.447 120.3 636.591 120.552 635.701 120.763C634.81 120.974 633.873 121.138 632.888 121.255C631.904 121.373 630.832 121.431 629.671 121.431C628.242 121.431 626.865 121.314 625.541 121.08C624.228 120.845 623.004 120.494 621.867 120.025C620.73 119.556 619.699 118.976 618.773 118.285C617.847 117.582 617.05 116.767 616.382 115.841C615.726 114.916 615.216 113.873 614.853 112.712C614.502 111.552 614.326 110.281 614.326 108.898C614.326 107.515 614.502 106.244 614.853 105.083C615.216 103.923 615.726 102.88 616.382 101.955C617.05 101.029 617.847 100.22 618.773 99.5288C619.699 98.8257 620.73 98.2397 621.867 97.771C623.004 97.3022 624.228 96.9507 625.541 96.7163C626.853 96.4819 628.23 96.3647 629.671 96.3647C630.832 96.3647 631.904 96.4233 632.888 96.5405C633.873 96.6577 634.81 96.8218 635.701 97.0327C636.591 97.2436 637.447 97.4956 638.267 97.7886C639.099 98.0698 639.937 98.3862 640.781 98.7378V101.374C640.113 100.953 639.398 100.554 638.636 100.179C637.875 99.8042 637.048 99.4761 636.158 99.1948C635.279 98.9136 634.336 98.6909 633.328 98.5268C632.32 98.3628 631.242 98.2807 630.093 98.2807C627.773 98.2807 625.763 98.5327 624.064 99.0366C622.365 99.5405 620.959 100.255 619.845 101.181C618.744 102.095 617.923 103.208 617.384 104.521C616.857 105.822 616.593 107.281 616.593 108.898C616.593 110.515 616.857 111.974 617.384 113.275C617.923 114.576 618.744 115.689 619.845 116.615C620.959 117.529 622.365 118.238 624.064 118.742C625.763 119.234 627.773 119.48 630.093 119.48C631.242 119.48 632.326 119.398 633.345 119.234C634.377 119.07 635.337 118.847 636.228 118.566C637.13 118.285 637.957 117.962 638.707 117.599C639.468 117.224 640.16 116.832 640.781 116.421V119.041ZM643.702 120.957V96.8042H663.829V98.8608H646.093V107.175H662.933V109.214H646.093V118.9H664.093V120.957H643.702ZM696.725 100.373C696.268 100.15 695.741 99.9155 695.143 99.6694C694.545 99.4116 693.86 99.1831 693.086 98.9839C692.325 98.7847 691.463 98.6206 690.502 98.4917C689.541 98.3511 688.475 98.2807 687.303 98.2807C685.885 98.2807 684.62 98.3628 683.506 98.5268C682.405 98.6909 681.467 98.9487 680.694 99.3003C679.932 99.6401 679.346 100.074 678.936 100.601C678.538 101.128 678.338 101.755 678.338 102.482C678.338 103.091 678.526 103.624 678.901 104.082C679.288 104.539 679.803 104.943 680.448 105.294C681.104 105.646 681.866 105.968 682.733 106.261C683.612 106.542 684.538 106.812 685.51 107.07C686.495 107.316 687.502 107.568 688.534 107.826C689.577 108.083 690.584 108.365 691.557 108.669C692.541 108.962 693.467 109.296 694.334 109.671C695.213 110.035 695.975 110.462 696.62 110.955C697.276 111.447 697.791 112.009 698.166 112.642C698.553 113.275 698.746 114.007 698.746 114.839C698.746 115.742 698.577 116.533 698.237 117.212C697.897 117.88 697.434 118.46 696.848 118.953C696.274 119.433 695.594 119.837 694.809 120.166C694.036 120.482 693.204 120.734 692.313 120.921C691.434 121.109 690.52 121.238 689.571 121.308C688.633 121.39 687.707 121.431 686.793 121.431C684.696 121.431 682.791 121.279 681.08 120.974C679.381 120.669 677.758 120.253 676.211 119.726V117.037C677.805 117.986 679.487 118.636 681.256 118.988C683.038 119.339 684.907 119.515 686.864 119.515C688.246 119.515 689.524 119.433 690.696 119.269C691.868 119.105 692.881 118.847 693.737 118.496C694.592 118.132 695.254 117.664 695.723 117.089C696.204 116.515 696.444 115.812 696.444 114.98C696.444 114.312 696.25 113.726 695.864 113.222C695.489 112.718 694.973 112.279 694.317 111.904C693.672 111.517 692.911 111.177 692.032 110.884C691.164 110.591 690.245 110.322 689.272 110.076C688.299 109.818 687.291 109.572 686.248 109.337C685.217 109.091 684.215 108.828 683.243 108.546C682.27 108.265 681.344 107.949 680.465 107.597C679.598 107.246 678.836 106.835 678.18 106.367C677.536 105.886 677.02 105.335 676.633 104.714C676.258 104.093 676.071 103.373 676.071 102.552C676.071 101.744 676.223 101.029 676.528 100.408C676.832 99.7749 677.248 99.23 677.776 98.7729C678.315 98.3159 678.942 97.935 679.657 97.6304C680.371 97.3139 681.133 97.0679 681.942 96.8921C682.762 96.7046 683.612 96.5698 684.491 96.4878C685.37 96.4057 686.237 96.3647 687.092 96.3647C688.03 96.3647 688.914 96.4057 689.746 96.4878C690.59 96.5698 691.399 96.6811 692.172 96.8218C692.957 96.9507 693.719 97.103 694.457 97.2788C695.207 97.4546 695.963 97.6421 696.725 97.8413V100.373ZM712.725 110.726V120.957H710.527V110.726L699.189 96.8042H701.809L711.635 108.898L721.426 96.8042H724.062L712.725 110.726ZM745.353 100.373C744.896 100.15 744.369 99.9155 743.771 99.6694C743.173 99.4116 742.488 99.1831 741.714 98.9839C740.953 98.7847 740.091 98.6206 739.13 98.4917C738.17 98.3511 737.103 98.2807 735.931 98.2807C734.513 98.2807 733.248 98.3628 732.134 98.5268C731.033 98.6909 730.095 98.9487 729.322 99.3003C728.56 99.6401 727.974 100.074 727.564 100.601C727.166 101.128 726.966 101.755 726.966 102.482C726.966 103.091 727.154 103.624 727.529 104.082C727.916 104.539 728.431 104.943 729.076 105.294C729.732 105.646 730.494 105.968 731.361 106.261C732.24 106.542 733.166 106.812 734.138 107.07C735.123 107.316 736.13 107.568 737.162 107.826C738.205 108.083 739.213 108.365 740.185 108.669C741.17 108.962 742.095 109.296 742.963 109.671C743.841 110.035 744.603 110.462 745.248 110.955C745.904 111.447 746.42 112.009 746.795 112.642C747.181 113.275 747.375 114.007 747.375 114.839C747.375 115.742 747.205 116.533 746.865 117.212C746.525 117.88 746.062 118.46 745.476 118.953C744.902 119.433 744.222 119.837 743.437 120.166C742.664 120.482 741.832 120.734 740.941 120.921C740.062 121.109 739.148 121.238 738.199 121.308C737.261 121.39 736.336 121.431 735.422 121.431C733.324 121.431 731.42 121.279 729.709 120.974C728.009 120.669 726.386 120.253 724.839 119.726V117.037C726.433 117.986 728.115 118.636 729.884 118.988C731.666 119.339 733.535 119.515 735.492 119.515C736.875 119.515 738.152 119.433 739.324 119.269C740.496 119.105 741.509 118.847 742.365 118.496C743.22 118.132 743.882 117.664 744.351 117.089C744.832 116.515 745.072 115.812 745.072 114.98C745.072 114.312 744.879 113.726 744.492 113.222C744.117 112.718 743.601 112.279 742.945 111.904C742.3 111.517 741.539 111.177 740.66 110.884C739.793 110.591 738.873 110.322 737.9 110.076C736.927 109.818 735.92 109.572 734.877 109.337C733.845 109.091 732.843 108.828 731.871 108.546C730.898 108.265 729.972 107.949 729.093 107.597C728.226 107.246 727.464 106.835 726.808 106.367C726.164 105.886 725.648 105.335 725.261 104.714C724.886 104.093 724.699 103.373 724.699 102.552C724.699 101.744 724.851 101.029 725.156 100.408C725.461 99.7749 725.877 99.23 726.404 98.7729C726.943 98.3159 727.57 97.935 728.285 97.6304C729 97.3139 729.761 97.0679 730.57 96.8921C731.39 96.7046 732.24 96.5698 733.119 96.4878C733.998 96.4057 734.865 96.3647 735.72 96.3647C736.658 96.3647 737.543 96.4057 738.375 96.4878C739.218 96.5698 740.027 96.6811 740.8 96.8218C741.586 96.9507 742.347 97.103 743.086 97.2788C743.836 97.4546 744.591 97.6421 745.353 97.8413V100.373ZM760.368 98.8081V120.957H758.189V98.8081H747.202V96.8042H771.355V98.8081H760.368ZM772.501 120.957V96.8042H792.628V98.8608H774.891V107.175H791.731V109.214H774.891V118.9H792.891V120.957H772.501ZM826.786 120.957V100.408L813.514 120.957H811.563L798.274 100.32V120.957H796.077V96.8042H798.432L812.6 118.689L826.61 96.8042H828.948V120.957H826.786ZM853.016 100.373C852.559 100.15 852.031 99.9155 851.434 99.6694C850.836 99.4116 850.15 99.1831 849.377 98.9839C848.615 98.7847 847.754 98.6206 846.793 98.4917C845.832 98.3511 844.766 98.2807 843.594 98.2807C842.176 98.2807 840.91 98.3628 839.797 98.5268C838.695 98.6909 837.758 98.9487 836.984 99.3003C836.223 99.6401 835.637 100.074 835.227 100.601C834.828 101.128 834.629 101.755 834.629 102.482C834.629 103.091 834.816 103.624 835.191 104.082C835.578 104.539 836.094 104.943 836.738 105.294C837.395 105.646 838.156 105.968 839.023 106.261C839.902 106.542 840.828 106.812 841.801 107.07C842.785 107.316 843.793 107.568 844.824 107.826C845.867 108.083 846.875 108.365 847.848 108.669C848.832 108.962 849.758 109.296 850.625 109.671C851.504 110.035 852.266 110.462 852.91 110.955C853.566 111.447 854.082 112.009 854.457 112.642C854.844 113.275 855.037 114.007 855.037 114.839C855.037 115.742 854.867 116.533 854.527 117.212C854.188 117.88 853.725 118.46 853.139 118.953C852.564 119.433 851.885 119.837 851.1 120.166C850.326 120.482 849.494 120.734 848.604 120.921C847.725 121.109 846.811 121.238 845.861 121.308C844.924 121.39 843.998 121.431 843.084 121.431C840.986 121.431 839.082 121.279 837.371 120.974C835.672 120.669 834.049 120.253 832.502 119.726V117.037C834.096 117.986 835.777 118.636 837.547 118.988C839.328 119.339 841.197 119.515 843.154 119.515C844.537 119.515 845.814 119.433 846.986 119.269C848.158 119.105 849.172 118.847 850.027 118.496C850.883 118.132 851.545 117.664 852.014 117.089C852.494 116.515 852.734 115.812 852.734 114.98C852.734 114.312 852.541 113.726 852.154 113.222C851.779 112.718 851.264 112.279 850.607 111.904C849.963 111.517 849.201 111.177 848.322 110.884C847.455 110.591 846.535 110.322 845.562 110.076C844.59 109.818 843.582 109.572 842.539 109.337C841.508 109.091 840.506 108.828 839.533 108.546C838.561 108.265 837.635 107.949 836.756 107.597C835.889 107.246 835.127 106.835 834.471 106.367C833.826 105.886 833.311 105.335 832.924 104.714C832.549 104.093 832.361 103.373 832.361 102.552C832.361 101.744 832.514 101.029 832.818 100.408C833.123 99.7749 833.539 99.23 834.066 98.7729C834.605 98.3159 835.232 97.935 835.947 97.6304C836.662 97.3139 837.424 97.0679 838.232 96.8921C839.053 96.7046 839.902 96.5698 840.781 96.4878C841.66 96.4057 842.527 96.3647 843.383 96.3647C844.32 96.3647 845.205 96.4057 846.037 96.4878C846.881 96.5698 847.689 96.6811 848.463 96.8218C849.248 96.9507 850.01 97.103 850.748 97.2788C851.498 97.4546 852.254 97.6421 853.016 97.8413V100.373Z" fill="#FF00A1"/>
</g>
<g filter="url(#filter1_d_7_2)">
<path d="M269.765 31.1032C269.765 34.1208 269.267 36.7868 268.271 39.1012C267.304 41.4157 265.766 43.3639 263.656 44.946C261.547 46.528 258.822 47.7292 255.482 48.5495C252.172 49.3405 248.173 49.736 243.485 49.736H216.371V72.9391H210.878V12.5583H243.485C248.173 12.5583 252.172 12.9684 255.482 13.7887C258.822 14.5798 261.547 15.7516 263.656 17.3044C265.766 18.8571 267.304 20.7907 268.271 23.1051C269.267 25.4196 269.765 28.0856 269.765 31.1032ZM264.096 31.1032C264.096 28.2321 263.612 25.9176 262.646 24.1598C261.708 22.402 260.243 21.0544 258.251 20.1169C256.288 19.1501 253.783 18.5055 250.736 18.1833C247.719 17.861 244.13 17.6999 239.97 17.6999H216.371V44.5944H239.97C241.581 44.5944 243.295 44.6091 245.111 44.6384C246.957 44.6384 248.773 44.5505 250.561 44.3747C252.348 44.1696 254.047 43.8327 255.658 43.3639C257.299 42.8659 258.734 42.1188 259.965 41.1227C261.225 40.1266 262.221 38.8229 262.953 37.2116C263.715 35.6003 264.096 33.5641 264.096 31.1032ZM275.618 72.9391V12.5583H325.936V17.6999H281.595V38.486H323.694V43.5837H281.595V67.7975H326.595V72.9391H275.618ZM340.051 47.0993V72.9391H334.558V12.5583H364.616C369.216 12.5583 373.156 12.9245 376.438 13.6569C379.719 14.36 382.399 15.444 384.479 16.9089C386.589 18.3444 388.127 20.1462 389.094 22.3141C390.061 24.4821 390.544 27.0163 390.544 29.9167C390.544 34.4284 389.357 38.0466 386.984 40.7712C384.611 43.4665 380.788 45.3122 375.515 46.3083L396.125 72.9391H389.226L369.758 46.9235C368.938 46.9821 368.103 47.026 367.253 47.0553C366.403 47.0846 365.524 47.0993 364.616 47.0993H340.051ZM384.875 29.9167C384.875 27.3385 384.421 25.2585 383.513 23.6764C382.604 22.0651 381.125 20.82 379.074 19.9411C377.023 19.0622 374.328 18.4762 370.988 18.1833C367.678 17.861 363.605 17.6999 358.771 17.6999H340.051V41.9577H358.596C363.43 41.9577 367.517 41.8259 370.856 41.5622C374.196 41.2692 376.906 40.6979 378.986 39.8483C381.066 38.9694 382.561 37.7536 383.469 36.2009C384.406 34.6188 384.875 32.5241 384.875 29.9167ZM406.021 17.6999V38.486H446.188V43.5837H406.021V72.9391H400.528V12.5583H448.341V17.6999H406.021ZM525.957 42.7926C525.957 48.2126 524.976 52.9001 523.013 56.8551C521.05 60.7809 518.354 64.0329 514.927 66.611C511.499 69.1598 507.456 71.0495 502.798 72.28C498.14 73.5104 493.115 74.1257 487.725 74.1257C482.305 74.1257 477.251 73.5104 472.563 72.28C467.876 71.0495 463.804 69.1598 460.347 66.611C456.89 64.0329 454.18 60.7809 452.217 56.8551C450.254 52.9001 449.272 48.2126 449.272 42.7926C449.272 39.1891 449.727 35.9225 450.635 32.9928C451.543 30.0339 452.817 27.3971 454.458 25.0827C456.099 22.7389 458.076 20.7175 460.391 19.0182C462.734 17.319 465.327 15.9128 468.169 14.7995C471.04 13.6569 474.116 12.8219 477.397 12.2946C480.679 11.738 484.121 11.4596 487.725 11.4596C493.115 11.4596 498.14 12.0749 502.798 13.3053C507.456 14.5358 511.499 16.4401 514.927 19.0182C518.354 21.5671 521.05 24.819 523.013 28.7741C524.976 32.6999 525.957 37.3727 525.957 42.7926ZM520.288 42.7926C520.288 38.5153 519.585 34.736 518.179 31.4548C516.802 28.1735 514.751 25.4196 512.026 23.193C509.302 20.9372 505.903 19.238 501.831 18.0954C497.788 16.9235 493.086 16.3376 487.725 16.3376C482.363 16.3376 477.632 16.9235 473.53 18.0954C469.458 19.2673 466.045 20.9811 463.291 23.237C460.537 25.4635 458.457 28.2321 457.051 31.5426C455.645 34.8239 454.941 38.5739 454.941 42.7926C454.941 47.07 455.645 50.8493 457.051 54.1305C458.457 57.4118 460.537 60.1803 463.291 62.4362C466.045 64.6628 469.458 66.362 473.53 67.5339C477.632 68.6764 482.363 69.2477 487.725 69.2477C493.086 69.2477 497.788 68.6764 501.831 67.5339C505.903 66.362 509.302 64.6628 512.026 62.4362C514.751 60.1803 516.802 57.4118 518.179 54.1305C519.585 50.8493 520.288 47.07 520.288 42.7926ZM538.578 47.0993V72.9391H533.085V12.5583H563.144C567.743 12.5583 571.684 12.9245 574.965 13.6569C578.246 14.36 580.927 15.444 583.007 16.9089C585.116 18.3444 586.654 20.1462 587.621 22.3141C588.588 24.4821 589.071 27.0163 589.071 29.9167C589.071 34.4284 587.885 38.0466 585.512 40.7712C583.139 43.4665 579.315 45.3122 574.042 46.3083L594.652 72.9391H587.753L568.285 46.9235C567.465 46.9821 566.63 47.026 565.78 47.0553C564.931 47.0846 564.052 47.0993 563.144 47.0993H538.578ZM583.402 29.9167C583.402 27.3385 582.948 25.2585 582.04 23.6764C581.132 22.0651 579.652 20.82 577.602 19.9411C575.551 19.0622 572.855 18.4762 569.516 18.1833C566.205 17.861 562.133 17.6999 557.299 17.6999H538.578V41.9577H557.123C561.957 41.9577 566.044 41.8259 569.384 41.5622C572.724 41.2692 575.434 40.6979 577.514 39.8483C579.594 38.9694 581.088 37.7536 581.996 36.2009C582.934 34.6188 583.402 32.5241 583.402 29.9167ZM675.828 72.9391V21.5671L642.649 72.9391H637.771L604.549 21.3473V72.9391H599.056V12.5583H604.944L640.364 67.2702L675.389 12.5583H681.233V72.9391H675.828ZM692.624 72.9391V12.5583L742.941 12.5583V17.6999H698.601V38.486H740.7V43.5837H698.601V67.7975H743.601V72.9391H692.624ZM757.057 47.0993V72.9391H751.563V12.5583H781.622C786.222 12.5583 790.162 12.9245 793.443 13.6569C796.725 14.36 799.405 15.444 801.485 16.9089C803.595 18.3444 805.133 20.1462 806.1 22.3141C807.066 24.4821 807.55 27.0163 807.55 29.9167C807.55 34.4284 806.363 38.0466 803.99 40.7712C801.617 43.4665 797.794 45.3122 792.521 46.3083L813.131 72.9391H806.231L786.764 46.9235C785.943 46.9821 785.108 47.026 784.259 47.0553C783.409 47.0846 782.53 47.0993 781.622 47.0993H757.057ZM801.881 29.9167C801.881 27.3385 801.427 25.2585 800.519 23.6764C799.61 22.0651 798.131 20.82 796.08 19.9411C794.029 19.0622 791.334 18.4762 787.994 18.1833C784.684 17.861 780.611 17.6999 775.777 17.6999H757.057V41.9577H775.602C780.436 41.9577 784.522 41.8259 787.862 41.5622C791.202 41.2692 793.912 40.6979 795.992 39.8483C798.072 38.9694 799.566 37.7536 800.475 36.2009C801.412 34.6188 801.881 32.5241 801.881 29.9167ZM897.655 72.9391L889.35 57.0309H848.349L840.043 72.9391H834.022L865.619 12.5583H872.079L903.676 72.9391H897.655ZM868.871 17.8757L851.029 51.9772H886.669L868.871 17.8757ZM906.585 72.9391V12.5583H912.078V72.9391H906.585Z" fill="#FF00A1"/>
</g>
<defs>
<filter id="filter0_d_7_2" x="261.941" y="96.3647" width="597.096" height="33.0664" filterUnits="userSpaceOnUse" color-interpolation-filters="sRGB">
<feFlood flood-opacity="0" result="BackgroundImageFix"/>
<feColorMatrix in="SourceAlpha" type="matrix" values="0 0 0 0 0 0 0 0 0 0 0 0 0 0 0 0 0 0 127 0" result="hardAlpha"/>
<feOffset dy="4"/>
<feGaussianBlur stdDeviation="2"/>
<feComposite in2="hardAlpha" operator="out"/>
<feColorMatrix type="matrix" values="0 0 0 0 0 0 0 0 0 0 0 0 0 0 0 0 0 0 0.25 0"/>
<feBlend mode="normal" in2="BackgroundImageFix" result="effect1_dropShadow_7_2"/>
<feBlend mode="normal" in="SourceGraphic" in2="effect1_dropShadow_7_2" result="shape"/>
</filter>
<filter id="filter1_d_7_2" x="206.878" y="11.4596" width="709.2" height="70.666" filterUnits="userSpaceOnUse" color-interpolation-filters="sRGB">
<feFlood flood-opacity="0" result="BackgroundImageFix"/>
<feColorMatrix in="SourceAlpha" type="matrix" values="0 0 0 0 0 0 0 0 0 0 0 0 0 0 0 0 0 0 127 0" result="hardAlpha"/>
<feOffset dy="4"/>
<feGaussianBlur stdDeviation="2"/>
<feComposite in2="hardAlpha" operator="out"/>
<feColorMatrix type="matrix" values="0 0 0 0 0 0 0 0 0 0 0 0 0 0 0 0 0 0 0.25 0"/>
<feBlend mode="normal" in2="BackgroundImageFix" result="effect1_dropShadow_7_2"/>
<feBlend mode="normal" in="SourceGraphic" in2="effect1_dropShadow_7_2" result="shape"/>
</filter>
</defs>
</svg>
